<?xml version="1.0" encoding="UTF-8"?>
<svg width="392px" height="95px" viewBox="0 0 392 95" version="1.1" xmlns="http://www.w3.org/2000/svg" xmlns:xlink="http://www.w3.org/1999/xlink">
    <title>OopsImeanthis-1</title>
    <g id="Page-1" stroke="none" stroke-width="1" fill="none" fill-rule="evenodd">
        <g id="OopsImeanthis-1" transform="translate(0.000000, -1.000000)" fill="#FFFFFF">
            <path d="M84.91,64.59 C77.34,62.26 69.81,58.7 67.74,50.18 C66,43.12 69.39,34.83 74.4,29.87 C77.55,26.74 81.71,23.95 83.82,19.87 C85.64,16.4 84.13,12.75 80.05,12.6 C74,12.42 67.41,18.89 61.39,16.9 C57.33,15.56 56.5,9.9 54.32,6.83 C52.9214874,4.82383466 50.9584219,3.27844273 48.68,2.39 C43.9825121,0.491486997 38.722985,0.538254338 34.06,2.52 C28.38,5.1 26.34,11 22.35,15.39 C22.2173721,15.5401278 22.0969868,15.7006414 21.99,15.87 C18.56,18.18 16.74,18.23 13.34,15.29 C11.13,13.38 8.87,10 5.73,9.65 C-0.86,9 -0.89,16.31 1.31,20.46 C3.37,24.33 6.67,27.31 8,31.6 C9.31545551,36.1158776 8.96045986,40.9544683 7,45.23 C4.55,51.08 0.86,58 5.18,63.93 C9.23,69.53 16.93,68.76 22.76,66.93 C26.27,65.86 29.63,64.24 33.24,63.51 C37.97,62.51 42.51,63.72 46.95,65.34 C54.08,67.94 60.21,70.34 67.89,70.25 C73.14,70.25 79.81,71.02 84.89,69.45 C85.9567562,69.1244699 86.6970596,68.1548334 86.73,67.04 L86.73,67 C86.7251932,65.8818535 85.9841551,64.9005888 84.91,64.59 Z M33.47,40.45 C28.3244401,40.3190662 24.2569636,36.0457548 24.38,30.9 C24.2569636,25.7542452 28.3244401,21.4809338 33.47,21.35 C38.6155599,21.4809338 42.6830364,25.7542452 42.56,30.9 C42.6830364,36.0457548 38.6155599,40.3190662 33.47,40.45 Z M53.66,39.73 C50.7313303,39.7134536 48.3690222,37.3288087 48.3799992,34.4001129 C48.391053,31.4714172 50.7712322,29.1046097 53.6999436,29.1100845 C56.6286549,29.1155784 59.0000097,31.4912835 59.0000097,34.42 C59.0027089,35.8343378 58.4400069,37.1910903 57.437104,38.1883589 C56.4342012,39.1856274 55.0743001,39.7406769 53.66,39.73 L53.66,39.73 Z" id="Shape" fill-rule="nonzero"></path>
            <path d="M115.06,18.8699823 C129.37292,18.8645323 140.983363,30.4571488 140.999906,44.7700604 C141.016413,59.0829721 129.43277,70.7023675 115.119875,70.7299992 C100.806981,70.7575324 89.1786399,59.182869 89.1397659,44.87 C89.1107182,37.9793039 91.829597,31.3612214 96.6945854,26.4812175 C101.559574,21.6012136 108.169246,18.8619531 115.06,18.8699823 L115.06,18.8699823 Z M115.06,67.5500199 C124.27283,67.5540042 132.579418,62.0036702 136.101246,53.4905633 C139.623074,44.9774564 137.66543,35.1808633 131.142378,28.6750153 C124.619326,22.1691673 114.817598,20.2374013 106.313821,23.7816987 C97.8100444,27.325996 92.2816662,35.6472122 92.3098916,44.86 C92.3179512,50.8857203 94.7192876,56.6614835 98.9857413,60.9166851 C103.252195,65.1718866 109.03428,67.5579617 115.06,67.5500199 Z" id="Shape" stroke="#FFFFFF" stroke-width="0.5" fill-rule="nonzero"></path>
            <path d="M169.27,18.8699823 C183.58292,18.8645323 195.193363,30.4571488 195.209906,44.7700604 C195.226413,59.0829721 183.64277,70.7023675 169.329875,70.7299992 C155.016981,70.7575324 143.38864,59.182869 143.349766,44.87 C143.320718,37.9793039 146.039597,31.3612214 150.904585,26.4812175 C155.769574,21.6012136 162.379246,18.8619531 169.27,18.8699823 L169.27,18.8699823 Z M169.27,67.5500353 C178.48283,67.5540042 186.789418,62.0036702 190.311246,53.4905633 C193.833074,44.9774564 191.87543,35.1808633 185.352378,28.6750153 C178.829326,22.1691673 169.027598,20.2374013 160.523821,23.7816987 C152.020044,27.325996 146.491666,35.6472122 146.519892,44.86 C146.525298,50.8865371 148.925784,56.6638438 153.192814,60.9196201 C157.459844,65.1753964 163.24347,67.5606171 169.27,67.5500353 Z" id="Shape" stroke="#FFFFFF" stroke-width="0.5" fill-rule="nonzero"></path>
            <path d="M199.73,20.53 C199.759042,20.0271734 200.157513,19.6244185 200.66,19.5899615 L216.15,19.5899615 C225.119104,19.57067 232.40567,26.8258957 232.425039,35.795 C232.44433,44.7641043 225.189104,52.05067 216.22,52.07 L203.11,52.07 L203.11,69.07 C203.11,69.57 202.68,70 201.96,70 L200.66,70 C200.161072,69.9661422 199.763858,69.5689283 199.73,69.07 L199.73,20.53 Z M216,48.75 C223.189004,48.6788362 228.983926,42.839338 229,35.65 C228.852327,28.5613986 223.019644,22.9161461 215.93,23 L203.11,23 L203.11,48.75 L216,48.75 Z" id="Shape" stroke="#FFFFFF" stroke-width="0.5" fill-rule="nonzero"></path>
            <path d="M235.87,63.3 L236.52,62.43 C237.02,61.86 237.52,61.64 238.1,62.15 C238.82,62.79 244.15,67.69 251.43,67.69 C257.98,67.69 263.52,63.3 263.52,58.04 C263.52,51.63 258.27,48.75 249.52,45.8 C241.17,42.85 235.63,39.9 235.63,31.62 C235.63,26.22 239.95,18.87 251.18,18.87 C255.56744,18.9197146 259.85431,20.1905395 263.56,22.54 C263.82344,22.6830974 264.008781,22.9368385 264.064965,23.2313224 C264.12115,23.5258062 264.04225,23.8299619 263.85,24.06 C263.632698,24.3524163 263.44194,24.6636521 263.28,24.99 C263.155343,25.2888384 262.893707,25.5088232 262.577904,25.5803257 C262.262101,25.6518281 261.931224,25.5659973 261.69,25.35 C258.533496,23.3156921 254.891871,22.1593469 251.14,22 C242.28,22 239,27.44 239,31.54 C239,37.66 243.68,40.33 250.95,42.7 C260.82,46.09 267.08,49.55 267.08,57.9 C267.08,65.1 259.66,70.72 251.38,70.72 C245.74834,70.6481351 240.331011,68.5500738 236.12,64.81 C235.66,64.45 235.3,64.09 235.87,63.3 Z" id="Path" stroke="#FFFFFF" stroke-width="0.5"></path>
            <path d="M275.22,94.73 C275.209318,95.3440798 274.71408,95.8393179 274.1,95.85 L272.63,95.85 C272.01592,95.8393179 271.520682,95.3440798 271.51,94.73 L271.51,36.64 C271.520384,36.3304836 271.654101,36.0379701 271.881375,35.8276013 C272.108648,35.6172326 272.410605,35.5064771 272.72,35.52 L273.66,35.52 C273.908047,35.4950332 274.155475,35.5729231 274.34449,35.7354765 C274.533506,35.8980299 274.647556,36.1310108 274.66,36.38 L274.92,38.79 C278.073514,36.1151751 282.074866,34.6478944 286.21,34.6499977 C295.78,34.6499977 302.85,42.6499977 302.85,52.76 C302.85,62.87 295.6,70.86 285.43,70.86 C281.700635,70.9392621 278.065599,69.6838447 275.18,67.32 L275.22,94.73 Z M285,67.2401683 C293.36,67.2401683 299,60.86 299,52.67 C299,44.67 293.74,38.19 285.9,38.19 C281.828209,38.1421183 277.945231,39.9041112 275.3,43 L275.3,63.19 C277.852076,65.7969762 281.351838,67.2582173 285,67.2401683 Z" id="Shape" fill-rule="nonzero"></path>
            <path d="M320.9,47.76 C323.866751,47.8156989 326.806171,48.3387873 329.61,49.31 C329.61,41.72 328.83,37.93 322.02,37.93 C318.447127,37.9648429 314.922508,38.7590752 311.68,40.26 C311.418375,40.3876456 311.111473,40.3824215 310.854344,40.2459455 C310.597216,40.1094696 310.420898,39.8582154 310.38,39.57 L309.95,38.57 C309.820905,38.3336416 309.804441,38.0518919 309.90513,37.8021066 C310.005818,37.5523212 310.213076,37.3607538 310.47,37.28 C310.73,37.11 315.13,34.69 322.28,34.69 C332.8,34.69 333.28,40.99 333.28,49.78 L333.28,68.87 C333.277423,69.1758789 333.152028,69.4678898 332.932003,69.6803928 C332.711978,69.8928957 332.415784,70.0080606 332.11,70 L331.11,70 C330.51,70 330.25,69.66 330.11,69.06 L329.76,65.95 C326.51032,69.0241373 322.232393,70.7780873 317.76,70.87 C311.38,70.87 306.47,66.47 306.47,59.4 C306.42,52.76 311.85,47.76 320.9,47.76 Z M318.14,67.5 C322.544915,67.4062143 326.70742,65.4646793 329.61,62.15 L329.61,52.67 C326.857204,51.4893714 323.895259,50.8738582 320.9,50.86 C314.35,50.86 309.95,54.22 309.95,59.31 C309.830296,61.5166472 310.654658,63.6700835 312.217287,65.2327128 C313.779917,66.7953422 315.933353,67.619704 318.14,67.5 Z" id="Shape" fill-rule="nonzero"></path>
            <path d="M338.52,36.64 C338.52543,36.0237044 339.023704,35.5254302 339.64,35.52 L340.64,35.52 C341.133276,35.5129663 341.548065,35.8884594 341.59,36.38 L342.02,40.08 C344.944832,36.5475176 349.32497,34.5471683 353.91,34.65 C359.17,34.65 363.05,36.9 365.21,40.95 C368.413043,37.0877512 373.124401,34.7921942 378.14,34.65 C387.53,34.65 391.58,40.77 391.58,50.43 L391.58,68.87 C391.58,69.4787888 391.098407,69.9784501 390.49,70 L388.77,70 C388.491404,69.9881033 388.230429,69.8604219 388.050052,69.647768 C387.869676,69.435114 387.786284,69.156804 387.82,68.88 L387.82,50.43 C387.82,42.5 384.37,38.36 377.91,38.36 C371.45,38.36 367.65,42.84 366.53,44.22 C367.077655,46.2436287 367.340188,48.3337919 367.31,50.43 L367.31,68.87 C367.304569,69.4918183 366.801818,69.994569 366.18,70 L364.55,70 C364.26262,70.0020776 363.988238,69.8804149 363.796833,69.6660419 C363.605429,69.4516689 363.515506,69.1653097 363.55,68.88 L363.55,50.43 C363.55,42.5 360.02,38.36 353.55,38.36 C349.066676,38.433517 344.895027,40.6683291 342.35,44.36 L342.35,68.87 C342.396362,69.1871484 342.287891,69.507301 342.0583,69.7309539 C341.828709,69.9546068 341.505825,70.0546538 341.19,70 L339.46,70 C339.183182,69.9854176 338.924836,69.8565854 338.746631,69.6442559 C338.568426,69.4319264 338.486352,69.1551521 338.52,68.88 L338.52,36.64 Z" id="Path"></path>
        </g>
    </g>
</svg>