<svg xmlns="http://www.w3.org/2000/svg" viewBox="0 0 391.61 94.85"><defs><style>.cls-1,.cls-2{fill:#231f20;}.cls-2{stroke:#231f20;stroke-miterlimit:10;stroke-width:0.5px;}</style></defs><title>OopsImeanthis</title><g id="Layer_2" data-name="Layer 2"><g id="Layer_1-2" data-name="Layer 1"><path class="cls-1" d="M84.91,63.59c-7.57-2.33-15.1-5.89-17.17-14.41C66,42.12,69.39,33.83,74.4,28.87c3.15-3.13,7.31-5.92,9.42-10,1.82-3.47.31-7.12-3.77-7.27C74,11.42,67.41,17.89,61.39,15.9c-4.06-1.34-4.89-7-7.07-10.07a12.34,12.34,0,0,0-5.64-4.44,19.09,19.09,0,0,0-14.62.13C28.38,4.1,26.34,10,22.35,14.39a3.75,3.75,0,0,0-.36.48c-3.43,2.31-5.25,2.36-8.65-.58C11.13,12.38,8.87,9,5.73,8.65-.86,8-.89,15.31,1.31,19.46,3.37,23.33,6.67,26.31,8,30.6A19.57,19.57,0,0,1,7,44.23C4.55,50.08.86,57,5.18,62.93c4.05,5.6,11.75,4.83,17.58,3,3.51-1.07,6.87-2.69,10.48-3.42,4.73-1,9.27.21,13.71,1.83,7.13,2.6,13.26,5,20.94,4.91,5.25,0,11.92.77,17-.8a2.6,2.6,0,0,0,1.84-2.41V66A2.52,2.52,0,0,0,84.91,63.59ZM33.47,39.45a9.33,9.33,0,0,1-9.09-9.55,9.33,9.33,0,0,1,9.09-9.55,9.33,9.33,0,0,1,9.09,9.55A9.33,9.33,0,0,1,33.47,39.45Zm20.19-.72A5.31,5.31,0,1,1,59,33.42,5.3,5.3,0,0,1,53.66,38.73Z"/><path class="cls-2" d="M115.06,17.87a25.93,25.93,0,1,1-25.92,26A25.89,25.89,0,0,1,115.06,17.87Zm0,48.68A22.76,22.76,0,1,0,92.31,43.86,22.72,22.72,0,0,0,115.06,66.55Z"/><path class="cls-2" d="M169.27,17.87a25.93,25.93,0,1,1-25.92,26A25.89,25.89,0,0,1,169.27,17.87Zm0,48.68a22.76,22.76,0,1,0-22.75-22.69A22.71,22.71,0,0,0,169.27,66.55Z"/><path class="cls-2" d="M199.73,19.53a1,1,0,0,1,.93-.94h15.49a16.24,16.24,0,0,1,.07,32.48H203.11v17c0,.5-.43.93-1.15.93h-1.3a1,1,0,0,1-.93-.93ZM216,47.75a13.13,13.13,0,0,0,13-13.1A12.92,12.92,0,0,0,215.93,22H203.11V47.75Z"/><path class="cls-2" d="M235.87,62.3l.65-.87c.5-.57,1-.79,1.58-.28.72.64,6.05,5.54,13.33,5.54,6.55,0,12.09-4.39,12.09-9.65,0-6.41-5.25-9.29-14-12.24-8.35-2.95-13.89-5.9-13.89-14.18,0-5.4,4.32-12.75,15.55-12.75a23.62,23.62,0,0,1,12.38,3.67,1,1,0,0,1,.29,1.52,6.12,6.12,0,0,0-.57.93,1,1,0,0,1-1.59.36A21.13,21.13,0,0,0,251.14,21C242.28,21,239,26.44,239,30.54c0,6.12,4.68,8.79,11.95,11.16,9.87,3.39,16.13,6.85,16.13,15.2,0,7.2-7.42,12.82-15.7,12.82a23.43,23.43,0,0,1-15.26-5.91C235.66,63.45,235.3,63.09,235.87,62.3Z"/><path class="cls-1" d="M275.22,93.73a1.14,1.14,0,0,1-1.12,1.12h-1.47a1.14,1.14,0,0,1-1.12-1.12V35.64a1.16,1.16,0,0,1,1.21-1.12h.94a.91.91,0,0,1,1,.86l.26,2.41a17.44,17.44,0,0,1,11.29-4.14c9.57,0,16.64,8,16.64,18.11s-7.25,18.1-17.42,18.1a15.65,15.65,0,0,1-10.25-3.54ZM285,66.24c8.36,0,14-6.38,14-14.57,0-8-5.26-14.48-13.1-14.48A13.73,13.73,0,0,0,275.3,42V62.19A13.48,13.48,0,0,0,285,66.24Z"/><path class="cls-1" d="M320.9,46.76a28.23,28.23,0,0,1,8.71,1.55c0-7.59-.78-11.38-7.59-11.38a25.2,25.2,0,0,0-10.34,2.33.91.91,0,0,1-1.3-.69l-.43-1a.9.9,0,0,1,.52-1.29c.26-.17,4.66-2.59,11.81-2.59,10.52,0,11,6.3,11,15.09V67.87A1.14,1.14,0,0,1,332.11,69h-1c-.6,0-.86-.34-1-.94l-.35-3.11a18,18,0,0,1-12,4.92c-6.38,0-11.29-4.4-11.29-11.47C306.42,51.76,311.85,46.76,320.9,46.76ZM318.14,66.5a15.69,15.69,0,0,0,11.47-5.35V51.67a22.36,22.36,0,0,0-8.71-1.81c-6.55,0-10.95,3.36-10.95,8.45A7.78,7.78,0,0,0,318.14,66.5Z"/><path class="cls-1" d="M338.52,35.64a1.13,1.13,0,0,1,1.12-1.12h1a.94.94,0,0,1,.95.86l.43,3.7a15,15,0,0,1,11.89-5.43c5.26,0,9.14,2.25,11.3,6.3a17.44,17.44,0,0,1,12.93-6.3c9.39,0,13.44,6.12,13.44,15.78V67.87A1.13,1.13,0,0,1,390.49,69h-1.72a1,1,0,0,1-.95-1.12V49.43c0-7.93-3.45-12.07-9.91-12.07s-10.26,4.48-11.38,5.86a22.53,22.53,0,0,1,.78,6.21V67.87A1.14,1.14,0,0,1,366.18,69h-1.63a1,1,0,0,1-1-1.12V49.43c0-7.93-3.53-12.07-10-12.07a13.88,13.88,0,0,0-11.2,6V67.87A1,1,0,0,1,341.19,69h-1.73a1,1,0,0,1-.94-1.12Z"/></g></g></svg>